<?xml version="1.0" standalone="no"?>
<!DOCTYPE svg PUBLIC "-//W3C//DTD SVG 20010904//EN"
 "http://www.w3.org/TR/2001/REC-SVG-20010904/DTD/svg10.dtd">
<svg version="1.0" xmlns="http://www.w3.org/2000/svg"
 width="900.000000pt" height="1241.000000pt" viewBox="0 0 900.000000 1241.000000"
 preserveAspectRatio="xMidYMid meet">
<metadata>
Created by potrace 1.16, written by Peter Selinger 2001-2019
</metadata>
<g transform="translate(0.000000,1241.000000) scale(0.100000,-0.100000)"
fill="#000000" stroke="none">
<path d="M1973 11843 c-361 -545 -635 -1170 -858 -1958 -30 -104 -61 -209 -69
-231 -8 -23 -33 -135 -56 -250 -55 -274 -122 -552 -154 -639 -15 -38 -48 -112
-73 -163 l-47 -92 21 -28 c11 -15 62 -65 114 -111 52 -46 144 -129 204 -185
61 -56 115 -105 121 -109 6 -4 73 25 148 64 429 221 862 340 1390 380 257 20
861 4 985 -26 23 -6 23 -7 5 -19 -35 -23 -298 -134 -369 -155 -110 -33 -205
-41 -326 -29 -106 11 -107 11 -151 -15 -41 -24 -130 -101 -293 -257 -373 -354
-624 -544 -1340 -1012 -121 -79 -249 -168 -285 -197 -90 -73 -152 -103 -227
-109 -62 -5 -72 -2 -206 66 -20 10 0 -609 32 -948 99 -1045 341 -1961 782
-2953 102 -230 114 -253 222 -432 101 -169 95 -160 102 -154 2 3 -20 70 -51
150 -328 852 -513 1669 -589 2599 -9 107 -21 353 -26 545 -5 193 -12 413 -15
490 -5 124 -4 147 14 197 43 121 174 274 392 454 69 57 175 147 235 200 146
129 325 263 641 481 143 99 285 197 315 218 116 81 218 163 307 246 127 119
170 139 425 204 117 30 257 68 309 85 52 16 98 30 103 30 4 0 -20 -30 -52 -67
-33 -38 -119 -142 -193 -233 -247 -305 -408 -478 -466 -500 -15 -6 -44 -6 -75
0 -29 6 -56 10 -62 10 -12 0 -3 -926 13 -1450 28 -895 111 -1776 226 -2410
154 -845 381 -1555 667 -2087 58 -109 61 -113 94 -113 l33 0 -16 38 c-269 632
-429 1447 -499 2537 -32 500 -37 712 -42 1838 l-5 1158 -39 57 c-24 35 -39 69
-39 88 0 39 40 101 126 194 91 99 148 172 284 369 124 177 229 298 299 343 54
34 61 35 61 6 -1 -43 -48 -137 -117 -235 -107 -149 -116 -171 -121 -289 -5
-117 12 -242 62 -449 18 -77 68 -286 111 -465 154 -652 277 -1073 400 -1375
42 -102 51 -116 71 -108 24 9 44 59 53 134 14 109 28 109 42 0 12 -102 49
-162 78 -128 17 22 117 277 176 453 104 312 210 706 290 1079 20 94 56 253 80
355 25 102 51 225 60 274 17 100 20 273 5 326 -5 19 -48 87 -95 150 -80 108
-135 215 -135 260 0 19 2 20 28 6 77 -41 176 -154 374 -431 59 -83 148 -195
198 -250 116 -129 160 -193 167 -241 4 -34 0 -46 -35 -92 l-40 -53 -5 -1152
c-5 -1075 -10 -1296 -37 -1762 -63 -1082 -219 -1917 -474 -2545 l-34 -85 35
-3 c25 -2 39 2 49 15 33 44 198 391 249 528 339 890 527 1825 624 3105 40 513
58 1012 68 1844 l6 569 -49 -7 c-27 -4 -62 -9 -77 -12 -25 -5 -40 6 -150 118
-67 67 -201 220 -297 338 -96 118 -203 247 -237 286 l-61 71 101 -32 c56 -19
201 -59 322 -90 120 -31 240 -67 265 -81 26 -14 87 -62 136 -106 105 -95 260
-213 629 -478 442 -317 598 -437 844 -648 250 -214 390 -362 432 -458 30 -67
41 -169 29 -265 -6 -46 -15 -255 -20 -464 -29 -1153 -210 -2109 -576 -3050
-41 -104 -73 -194 -71 -199 7 -20 175 307 295 574 438 972 692 1924 792 2967
23 240 40 586 40 811 l0 153 -29 -20 c-92 -66 -197 -79 -286 -37 -27 13 -84
48 -125 77 -89 64 -149 104 -415 274 -598 382 -843 570 -1214 931 -213 208
-273 258 -328 273 -20 6 -70 5 -133 -2 -118 -13 -210 -3 -340 39 -101 32 -344
144 -333 154 21 19 429 44 688 43 647 -2 1185 -125 1682 -383 l152 -79 158
131 c163 136 265 235 295 285 17 29 16 30 -19 89 -86 142 -154 378 -253 879
-17 83 -41 186 -55 230 -13 44 -47 155 -74 247 -239 795 -484 1344 -844 1891
-124 187 -164 221 -91 75 435 -864 664 -1510 778 -2195 53 -316 76 -596 76
-931 0 -208 -1 -223 -17 -218 -279 82 -1006 176 -1686 217 -211 13 -297 9
-572 -31 -172 -25 -299 -35 -294 -24 33 78 152 283 182 314 67 67 116 85 227
83 52 -1 266 -2 475 -2 508 0 606 -10 731 -73 l43 -21 49 45 c26 25 94 75 149
112 56 36 113 81 128 98 25 30 27 37 21 90 -9 93 -62 288 -138 508 -90 263
-99 292 -153 490 -112 404 -286 881 -505 1385 -50 116 -94 218 -97 228 -4 13
-16 17 -52 17 l-47 0 48 -177 c129 -471 228 -967 278 -1393 26 -220 50 -601
50 -787 l0 -143 -571 0 c-507 0 -575 -2 -605 -16 -20 -9 -95 -83 -173 -168
-76 -83 -170 -180 -207 -216 l-69 -65 -6 75 c-6 84 -28 138 -87 214 -43 57
-129 132 -139 123 -4 -4 3 -31 15 -60 48 -118 64 -183 65 -262 2 -82 -15 -145
-38 -145 -17 0 -40 29 -58 70 -8 19 -23 43 -34 53 -20 17 -23 16 -94 -18 -103
-49 -166 -49 -239 1 -51 35 -52 35 -72 17 -12 -10 -27 -34 -35 -53 -18 -41
-41 -70 -58 -70 -23 0 -40 63 -39 141 2 82 20 156 65 263 16 37 29 72 29 78 0
16 -90 -54 -137 -107 -69 -76 -95 -136 -102 -235 l-7 -85 -84 86 c-47 48 -143
148 -213 222 -99 105 -137 139 -165 147 -23 6 -249 10 -599 10 l-563 0 0 143
c0 411 62 989 156 1457 53 262 200 859 220 891 3 5 -16 9 -43 9 l-48 0 -49
-118 c-258 -618 -406 -1025 -562 -1540 -35 -117 -75 -238 -87 -270 -69 -168
-190 -583 -203 -694 -10 -88 18 -126 171 -225 55 -36 117 -79 137 -95 l38 -29
62 30 c107 52 137 55 593 56 231 0 472 5 536 9 131 10 166 3 241 -47 52 -35
101 -104 174 -247 27 -52 51 -99 53 -104 5 -11 -124 -1 -294 24 -291 42 -363
45 -637 27 -706 -48 -1346 -133 -1620 -213 -17 -5 -18 10 -18 218 1 1022 239
1900 844 3106 35 69 51 112 43 112 -7 0 -63 -75 -124 -167z"/>
</g>
</svg>
